<svg xmlns="http://www.w3.org/2000/svg" viewBox="0 0 100 100">
  <!-- Dark green background with rounded corners -->
  <rect width="100" height="100" fill="#1c3d2a" rx="18"/>
  <!-- Orange starburst (20 spikes, outer r=46, inner r=30) -->
  <polygon fill="#e07820"
    points="50,4 54.69,20.37 64.21,6.25 63.62,23.27 77.05,12.79 71.21,28.79 87.21,22.95 76.73,36.38 93.75,35.79 79.63,45.31 96,50 79.63,54.69 93.75,64.21 76.73,63.62 87.21,77.05 71.21,71.21 77.05,87.21 63.62,76.73 64.21,93.75 54.69,79.63 50,96 45.31,79.63 35.79,93.75 36.38,76.73 22.95,87.21 28.79,71.21 12.79,77.05 23.27,63.62 6.25,64.21 20.37,54.69 4,50 20.37,45.31 6.25,35.79 23.27,36.38 12.79,22.95 28.79,28.79 22.95,12.79 36.38,23.27 35.79,6.25 45.31,20.37"
  />
  <!-- Center fill -->
  <circle cx="50" cy="50" r="28" fill="#e07820"/>
  <!-- White ring -->
  <circle cx="50" cy="50" r="21" fill="none" stroke="white" stroke-width="1.5" opacity="0.6"/>
  <!-- "A" lettermark -->
  <text x="50" y="50" text-anchor="middle" dominant-baseline="central"
        font-family="Georgia,'Times New Roman',serif" font-size="22"
        font-weight="bold" fill="white">A</text>
</svg>
